<?xml version="1.0" standalone="no"?><!DOCTYPE svg PUBLIC "-//W3C//DTD SVG 1.1//EN" "http://www.w3.org/Graphics/SVG/1.1/DTD/svg11.dtd"><svg t="1588066308498" class="icon" viewBox="0 0 1024 1024" version="1.1" xmlns="http://www.w3.org/2000/svg" p-id="2077" xmlns:xlink="http://www.w3.org/1999/xlink" width="200" height="200"><defs><style type="text/css"></style></defs><path d="M512 838.46h-0.07a92.25 92.25 0 0 1-65.7-27.3l-228-228c-86-86-95.26-223.85-21-313.77S401 159.05 498.69 222a23.9 23.9 0 0 0 26.48 0c97.79-63 227.4-42.63 301.65 47.36s65 227.75-21 313.77L577.73 811.22A92.34 92.34 0 0 1 512 838.46zM374.89 255.61A160.13 160.13 0 0 0 251.23 314c-51.53 62.33-44.23 158.82 16.5 219.59l228.09 228.09a22.73 22.73 0 0 0 16.18 6.7 22.89 22.89 0 0 0 16.22-6.71l228.05-228.08c60.77-60.77 68-157.26 16.49-219.6-51.59-62.55-141.76-76.79-209.61-33.13-31.48 20.46-70.76 20.39-102.38 0a158.18 158.18 0 0 0-85.88-25.25z" fill="#42494F" p-id="2078"></path></svg>